<?xml version="1.0" encoding="UTF-8"?>
<!-- Generator: Adobe Illustrator 24.0.1, SVG Export Plug-In . SVG Version: 6.00 Build 0)  -->
<svg version="1.1" id="Capa_1" xmlns="http://www.w3.org/2000/svg" xmlns:xlink="http://www.w3.org/1999/xlink" x="0px" y="0px" viewBox="0 0 429.9 96.1" style="enable-background:new 0 0 429.9 96.1;" xml:space="preserve">
<style type="text/css">
	.st0{fill:#587898;}
</style>
<title>logo_speckyboy</title>
<path d="M392.2,71.9l-11.4,24.1h14.4l34.8-74.9h-14.3l-15.9,34.4l-14.4-34.4h-14.2L392.2,71.9z M274.6,21.2H269l-15.9,34.4  l-14.4-34.4h-17.5l-20.5,22.6V0h-13.9v27.8c-2-1.9-4.3-3.5-6.8-4.7c-4.6-2.2-9.7-3.3-14.8-3.2c-5.6-0.1-11.1,1.2-16.1,3.8  c-4.5,2.4-8.4,5.9-11.1,10.3c-1.2-2.1-2.6-4.1-4.3-5.8c-5.5-5.5-12.6-8.3-21.3-8.3c-7.7-0.2-15.2,2.8-20.6,8.3  c-1.6,1.6-3,3.4-4.1,5.4c-1.1-2-2.4-3.9-4-5.5c-4.7-5.2-11.4-8.2-18.5-8.1c-3.2,0-6.4,0.6-9.4,1.9c-3,1.3-5.8,3.2-8.2,5.6v-6.1H33.8  v3.1c-1.1-0.8-2.2-1.6-3.5-2.2c-3.2-1.6-6.6-2.4-10.2-2.4c-5.3,0-9.6,1.5-13,4.6C3.8,27.1,2,31.2,2,35.5c0,6.7,4.5,12.3,13.5,16.8  l4.7,2.3c4,2,6.1,4.1,6.1,6.2c0,1.2-0.7,2.3-1.7,3c-1.3,0.9-2.9,1.4-4.4,1.3c-2.1-0.1-4.1-0.7-5.8-1.7c-2.2-1.2-4.1-2.7-5.7-4.6  L0,68.1c4.5,6.1,11.8,9.6,19.4,9.4c6,0,10.8-1.6,14.3-4.7v23.3h13.8V70.2c2.4,2.3,5.2,4.2,8.2,5.5c2.8,1.1,5.9,1.7,8.9,1.7  c7.1,0,13.9-3,18.6-8.2c1.5-1.6,2.9-3.5,4-5.4c1.2,2,2.7,3.9,4.3,5.6c5.5,5.4,12.6,8.1,21.3,8.1c5,0.1,10-0.9,14.5-3  c4.2-2.1,7.8-5.2,10.5-9.1l-11.7-5.4c-3.6,3.5-8.4,5.5-13.4,5.4c-3.9,0.2-7.7-1.1-10.8-3.4c-2.8-2.3-4.7-5.7-5.2-9.3h37  c0.8,6.2,3.6,11.9,8,16.3c5.5,5.7,13.2,8.6,22.9,8.6c9,0,16.2-2.6,21.9-7.9v6.6h13.9V50.7L224.2,76h17.3l-26.8-28.6l14.2-15.6  l16.6,40l-11.4,24.2h14.4l26.1-56.2L274.6,21.2z M25.3,42.8l-5.1-2.5c-1.5-0.6-2.9-1.5-4.2-2.5c-1.1-1.1-1.1-3,0-4.1  c0.1-0.1,0.3-0.3,0.5-0.4c1.1-0.7,2.4-1.1,3.7-1c2.9,0,6,1.7,9.5,5.1l4-3.9V48C31.1,45.9,28.3,44.1,25.3,42.8z M72.4,59.4  c-2.4,2.7-5.8,4.3-9.5,4.2c-3.7,0.1-7.2-1.4-9.6-4.2c-2.6-2.8-3.8-6.4-3.8-10.9c-0.2-3.9,1.2-7.8,3.8-10.7c2.5-2.7,6-4.2,9.6-4.1  c3.6-0.1,7.1,1.4,9.6,4.2C77.5,44.1,77.5,53.1,72.4,59.4z M97.6,41.7c1.6-3.4,3.3-5.8,5.1-7.1c3-2.2,6.6-3.3,10.2-3.2  c3.4-0.1,6.7,0.9,9.4,2.9c2.6,1.8,4.5,4.4,5.4,7.5L97.6,41.7z M179.1,58.5c-3.5,4.2-8.3,6.3-14.6,6.3c-5,0-9.1-1.5-12.2-4.4  c-3.1-3-4.8-7.1-4.6-11.4c-0.2-4.4,1.6-8.7,4.8-11.8c3.2-3.1,7.4-4.6,12.6-4.6c5.3-0.3,10.5,1.9,14,6l7.6-4.1v29.3L179.1,58.5z"/>
<path class="st0" d="M382.4,50.3c0-0.6,0-1.1,0-1.7l0,0c0-7.6-3-14.9-8.4-20.2l0,0l-0.4-0.4c-0.3-0.3-0.6-0.6-0.9-0.9l-0.2-0.1  c-5.3-4.6-12.2-7.2-19.3-7.2h-0.2c-7.1,0-14,2.6-19.2,7.5c-2.1,1.8-3.8,4-5.3,6.3c-1.1-2-2.4-3.9-4-5.6c-4.7-5.3-11.5-8.3-18.5-8.2  c-3.2,0-6.4,0.6-9.4,1.9c-3.1,1.3-5.8,3.2-8.2,5.6V0h-13.8v76h13.8v-5.8c2.4,2.3,5.2,4.2,8.2,5.5c2.8,1.1,5.9,1.7,8.9,1.7  c7.1,0,13.9-3,18.6-8.2c1.6-1.7,3-3.6,4.2-5.6c1.2,2,2.7,3.8,4.4,5.5c5.3,5.5,12.7,8.5,20.4,8.4c5.2,0.1,10.3-1.3,14.8-3.8  c4.4-2.5,8.1-6.1,10.6-10.5c2-3.5,3.3-7.4,3.7-11.4c0-0.2,0-0.4,0-0.6S382.4,50.5,382.4,50.3z M312.5,59.7c-2.4,2.7-5.8,4.3-9.5,4.2  c-3.7,0.1-7.2-1.4-9.6-4.2c-2.6-2.8-3.8-6.5-3.8-11c0-4.5,1.3-8.1,3.8-10.7c2.5-2.7,6-4.2,9.6-4.1c3.6-0.1,7.1,1.4,9.5,4.2  C317.7,44.4,317.6,53.4,312.5,59.7L312.5,59.7z M340.4,49.8c0-4.4,1.3-8,3.8-10.7c2.5-2.7,6-4.2,9.6-4.1c3.6-0.1,7.1,1.4,9.5,4.2  c5.1,6.3,5.1,15.3-0.1,21.6c-2.4,2.7-5.8,4.3-9.5,4.2c-3.7,0.1-7.2-1.4-9.6-4.2C341.7,58,340.4,54.3,340.4,49.8z"/>
<circle cx="305.2" cy="57" r="4"/>
<path d="M355.2,57c0-2.2-1.8-4-4-4s-4,1.8-4,4s1.8,4,4,4S355.2,59.2,355.2,57z"/>
</svg>